<?xml version="1.0" encoding="utf-8"?>
<!-- Generator: Adobe Illustrator 25.2.3, SVG Export Plug-In . SVG Version: 6.00 Build 0)  -->
<svg version="1.1" id="Layer_1" xmlns="http://www.w3.org/2000/svg" xmlns:xlink="http://www.w3.org/1999/xlink" x="0px" y="0px"
	 viewBox="0 0 359.5 359.5" style="enable-background:new 0 0 359.5 359.5;" xml:space="preserve">
<style type="text/css">
	.st0{fill:#FAB52B;}
	.st1{fill:#2D3174;}
	.st2{fill:#FFFFFF;}
</style>
<path class="st0" d="M178.5,354.3c-95,0.4-173.3-77.6-173.1-173.4S83.1,7.7,178.9,7.8c96.2,0,173.4,78.4,173.1,173.9
	C351.8,276.9,273.8,354.9,178.5,354.3z M243.5,278.9c2.3,3.1,5.2,5.7,8.5,7.7c13.1,7.8,31.2-2,32.2-17.1c0.6-8.8-3.2-15.3-9.7-20.7
	c10.2-13.6,16.3-29,19.6-45.6c0.6-2.8,1.4-3.2,4-3c8.7,0.7,15.6-2.8,20.1-10.2c4.6-7.6,4.4-15.5-0.5-22.9
	c-4.8-7.2-11.9-10.5-20.6-9.3c-2.8,0.4-3.5-0.6-3.9-2.8c-2.6-12.2-7.3-23.9-13.9-34.5c-1.4-2.2-1.5-3.3,0.9-5
	c6.1-4.2,9.4-11.4,8.6-18.8c-0.9-9.5-6-16.1-15.2-18.8s-17-0.2-23.1,7.3c-1.3,1.6-2,1.5-3.6,0.4c-12.6-9.2-27-15.7-42.3-18.9
	c-2.5-0.5-3.4-1.5-3.2-4.3c0.8-9-2.8-16.2-10.6-20.7c-6.7-4.1-15.1-4.1-21.7,0.2c-7.2,4.3-10.8,10.9-10.3,19.4
	c0.2,2.9-0.2,4.3-3.6,4.9c-14.3,2.7-28,8.3-40.2,16.3c-1.3,1-3.1,1-4.4,0c-9.7-6-20.5-5-27.7,2.3s-8.2,18.1-2.3,27.4
	c0.9,1.5,1.2,2.5,0.2,4c-8.2,12.2-14,25.9-17,40.3c-0.4,2-1.3,2.4-3.3,2.5c-12.5,0.5-21.5,9.4-21.6,21.2
	c-0.1,12.1,8.7,21.2,21.4,21.8c2.2,0.1,2.8,0.8,3.3,2.9c3.4,15,9,29.3,17.8,42.1c1.2,1.4,1.3,3.4,0.3,4.9c-5.5,10.5-1.4,23.4,9,28.9
	c6.4,3.3,14.1,3.2,20.4-0.3c1.6-1.1,3.8-1,5.3,0.2c11.8,7.5,24.9,12.7,38.6,15.4c3.6,0.7,5.1,2.1,6.4,5.3c3.2,8,11.8,13.3,20.2,12.9
	c8.9-0.4,16.9-6,19.5-14.4c1-3.2,2.7-4.1,5.6-4.8C220,291.9,232.4,286.8,243.5,278.9z"/>
<path class="st1" d="M243.5,278.9c-7.8-14.7,0.6-28.7,12-32.4c6.7-2.2,13-0.8,19,2.3c6.5,5.4,10.2,11.8,9.7,20.7
	c-1,15.2-19.1,24.9-32.2,17.1C248.7,284.6,245.8,282,243.5,278.9z"/>
<path class="st2" d="M42,192.5c-7.8-14.7,0.6-28.7,12-32.4c6.8-2.2,13-0.8,19,2.3c6.5,5.4,10.2,11.8,9.7,20.7
	c-1,15.2-19.1,24.9-32.2,17.1C47.1,198.3,44.2,195.6,42,192.5z"/>
<path class="st2" d="M78.8,111.9c-7.8-14.7,0.6-28.7,12-32.4c6.8-2.2,13-0.8,19,2.3c6.5,5.4,10.2,11.8,9.7,20.7
	c-1,15.2-19.1,24.9-32.2,17.1C84,117.6,81.1,115,78.8,111.9z"/>
<path class="st2" d="M160.9,72c-7.8-14.7,0.6-28.7,12-32.4c6.8-2.2,13-0.8,19,2.3c6.5,5.4,10.2,11.8,9.7,20.7
	c-0.9,15.2-19.1,24.9-32.2,17.1C166.1,77.7,163.2,75.1,160.9,72z"/>
<path class="st2" d="M161.4,303.9c-7.7-14.7,0.6-28.7,12-32.4c6.8-2.2,13-0.8,19,2.3c6.5,5.4,10.2,11.8,9.7,20.7
	c-0.9,15.2-19.1,24.9-32.2,17.1C166.6,309.7,163.7,307.1,161.4,303.9z"/>
<path class="st2" d="M81.5,273.2c-7.8-14.7,0.6-28.7,12-32.4c6.8-2.2,13-0.8,19,2.3c6.5,5.4,10.2,11.8,9.7,20.7
	c-1,15.2-19.1,24.9-32.2,17.1C86.7,278.9,83.8,276.3,81.5,273.2z"/>
<path class="st2" d="M280.8,191.2c-7.7-14.7,0.6-28.7,12-32.4c6.8-2.2,13-0.8,19,2.3c6.5,5.4,10.2,11.8,9.6,20.7
	c-1,15.2-19.1,24.9-32.2,17.1C286,197,283.1,194.4,280.8,191.2z"/>
<path class="st2" d="M248.7,110c-7.7-14.7,0.6-28.7,12-32.4c6.8-2.2,13-0.8,19.1,2.3c6.5,5.4,10.2,11.8,9.6,20.7
	c-1,15.2-19.1,24.9-32.2,17.1C253.9,115.8,251,113.1,248.7,110z"/>
</svg>
